M48
; DRILL file {KiCad (6.0.1)} date Thu Mar 31 11:18:57 2022
; FORMAT={-:-/ absolute / inch / decimal}
; #@! TF.CreationDate,2022-03-31T11:18:57+02:00
; #@! TF.GenerationSoftware,Kicad,Pcbnew,(6.0.1)
; #@! TF.FileFunction,Plated,1,2,PTH
FMAT,2
INCH
; #@! TA.AperFunction,Plated,PTH,ComponentDrill
T1C0.0315
; #@! TA.AperFunction,Plated,PTH,ComponentDrill
T2C0.0394
; #@! TA.AperFunction,Plated,PTH,ComponentDrill
T3C0.1200
%
G90
G05
T1
X4.725Y-3.465
X4.78Y-3.935
X4.78Y-4.155
X4.795Y-4.385
X4.825Y-3.465
X4.907Y-4.63
X4.9211Y-3.735
X4.925Y-3.465
X5.025Y-3.465
X5.0251Y-4.63
X5.0589Y-3.735
X5.125Y-3.465
X5.18Y-3.935
X5.18Y-4.155
X5.195Y-4.385
X5.225Y-3.465
X5.507Y-4.29
X5.507Y-4.39
X5.507Y-4.49
X5.507Y-4.59
X5.59Y-3.4694
X5.59Y-3.5694
X5.59Y-3.6694
X5.59Y-3.7694
X5.59Y-3.8694
X5.803Y-4.29
X5.803Y-4.39
X5.803Y-4.49
X5.803Y-4.59
X6.015Y-3.78
X6.02Y-4.63
X6.1216Y-4.035
X6.3103Y-4.3702
X6.3184Y-4.035
X6.415Y-3.78
X6.42Y-4.63
X6.4383Y-4.3702
X6.6459Y-3.685
X6.74Y-3.95
X6.74Y-4.05
X6.74Y-4.15
X6.74Y-4.25
X6.7641Y-3.685
T2
X5.11Y-2.975
X5.21Y-2.975
X5.31Y-2.975
X5.41Y-2.975
X5.47Y-4.875
X5.51Y-2.975
X5.57Y-4.875
X5.61Y-2.975
X5.67Y-4.875
X5.71Y-2.975
X5.77Y-4.875
X5.81Y-2.975
X5.87Y-4.875
X5.91Y-2.975
X5.97Y-4.875
X6.01Y-2.975
X6.07Y-4.875
X6.17Y-2.975
X6.17Y-4.875
X6.27Y-2.975
X6.37Y-2.975
X6.37Y-4.875
X6.47Y-2.975
X6.47Y-4.875
X6.57Y-2.975
X6.57Y-4.875
X6.67Y-2.975
X6.67Y-4.875
X6.77Y-2.975
X6.77Y-4.875
X6.87Y-2.975
X6.87Y-4.875
T3
X4.92Y-4.875
X4.97Y-2.975
X6.97Y-3.575
X6.97Y-4.675
T0
M30
