M48
; DRILL file {KiCad (6.0.1)} date Thu Mar 31 16:30:40 2022
; FORMAT={-:-/ absolute / inch / decimal}
; #@! TF.CreationDate,2022-03-31T16:30:40+02:00
; #@! TF.GenerationSoftware,Kicad,Pcbnew,(6.0.1)
; #@! TF.FileFunction,Plated,1,2,PTH
FMAT,2
INCH
; #@! TA.AperFunction,Plated,PTH,ComponentDrill
T1C0.0315
; #@! TA.AperFunction,Plated,PTH,ComponentDrill
T2C0.0394
; #@! TA.AperFunction,Plated,PTH,ComponentDrill
T3C0.1200
%
G90
G05
T1
X4.575Y-3.445
X4.63Y-3.99
X4.675Y-3.445
X4.775Y-3.445
X4.78Y-4.155
X4.795Y-4.385
X4.875Y-3.445
X4.907Y-4.63
X4.9211Y-3.735
X4.975Y-3.445
X5.0251Y-4.63
X5.03Y-3.99
X5.0589Y-3.735
X5.075Y-3.445
X5.18Y-4.155
X5.195Y-4.385
X5.507Y-4.29
X5.507Y-4.39
X5.507Y-4.49
X5.507Y-4.59
X5.59Y-3.5894
X5.59Y-3.6894
X5.59Y-3.7894
X5.59Y-3.8894
X5.59Y-3.9894
X5.803Y-4.29
X5.803Y-4.39
X5.803Y-4.49
X5.803Y-4.59
X5.95Y-3.81
X6.02Y-4.63
X6.1216Y-4.035
X6.35Y-3.81
X6.3578Y-4.035
X6.3853Y-4.3552
X6.42Y-4.63
X6.5133Y-4.3552
X6.6459Y-3.685
X6.74Y-3.95
X6.74Y-4.05
X6.74Y-4.15
X6.74Y-4.25
X6.7641Y-3.685
T2
X5.11Y-2.975
X5.21Y-2.975
X5.31Y-2.975
X5.41Y-2.975
X5.47Y-4.875
X5.51Y-2.975
X5.57Y-4.875
X5.61Y-2.975
X5.67Y-4.875
X5.71Y-2.975
X5.77Y-4.875
X5.81Y-2.975
X5.87Y-4.875
X5.91Y-2.975
X5.97Y-4.875
X6.01Y-2.975
X6.07Y-4.875
X6.17Y-2.975
X6.17Y-4.875
X6.27Y-2.975
X6.37Y-2.975
X6.37Y-4.875
X6.47Y-2.975
X6.47Y-4.875
X6.57Y-2.975
X6.57Y-4.875
X6.67Y-2.975
X6.67Y-4.875
X6.77Y-2.975
X6.77Y-4.875
X6.87Y-2.975
X6.87Y-4.875
T3
X4.92Y-4.875
X4.97Y-2.975
X6.97Y-3.575
X6.97Y-4.675
T0
M30
