M48
; DRILL file {KiCad (6.0.1)} date Wed Mar 16 11:01:58 2022
; FORMAT={-:-/ absolute / inch / decimal}
; #@! TF.CreationDate,2022-03-16T11:01:58+01:00
; #@! TF.GenerationSoftware,Kicad,Pcbnew,(6.0.1)
; #@! TF.FileFunction,Plated,1,2,PTH
FMAT,2
INCH
; #@! TA.AperFunction,Plated,PTH,ComponentDrill
T1C0.0315
; #@! TA.AperFunction,Plated,PTH,ComponentDrill
T2C0.0400
; #@! TA.AperFunction,Plated,PTH,ComponentDrill
T3C0.1200
%
G90
G05
T1
X4.805Y-3.97
X4.815Y-4.175
X4.86Y-3.76
X4.8608Y-4.4
X4.885Y-3.29
X4.9592Y-4.4
X4.985Y-3.29
X5.085Y-3.29
X5.18Y-3.5097
X5.185Y-3.29
X5.205Y-3.97
X5.215Y-4.175
X5.26Y-3.76
X5.28Y-3.5097
X5.285Y-3.29
X5.385Y-3.29
X5.492Y-4.14
X5.492Y-4.24
X5.492Y-4.34
X5.492Y-4.44
X5.59Y-3.4694
X5.59Y-3.5694
X5.59Y-3.6694
X5.59Y-3.7694
X5.59Y-3.8694
X5.788Y-4.14
X5.788Y-4.24
X5.788Y-4.34
X5.788Y-4.44
X5.9324Y-3.915
X6.01Y-4.475
X6.21Y-3.575
X6.2276Y-3.915
X6.305Y-4.15
X6.4034Y-4.15
X6.41Y-4.475
X6.61Y-3.575
X6.6308Y-3.755
X6.695Y-3.94
X6.695Y-4.04
X6.695Y-4.14
X6.695Y-4.24
X6.7292Y-3.755
T2
X5.11Y-2.975
X5.21Y-2.975
X5.31Y-2.975
X5.41Y-2.975
X5.47Y-4.875
X5.51Y-2.975
X5.57Y-4.875
X5.61Y-2.975
X5.67Y-4.875
X5.71Y-2.975
X5.77Y-4.875
X5.81Y-2.975
X5.87Y-4.875
X5.91Y-2.975
X5.97Y-4.875
X6.01Y-2.975
X6.07Y-4.875
X6.17Y-2.975
X6.17Y-4.875
X6.27Y-2.975
X6.37Y-2.975
X6.37Y-4.875
X6.47Y-2.975
X6.47Y-4.875
X6.57Y-2.975
X6.57Y-4.875
X6.67Y-2.975
X6.67Y-4.875
X6.77Y-2.975
X6.77Y-4.875
X6.87Y-2.975
X6.87Y-4.875
T3
X4.92Y-4.875
X4.97Y-2.975
X6.97Y-3.575
X6.97Y-4.675
T0
M30
